<?xml version="1.0" encoding="UTF-8" standalone="no"?>
<svg
   xmlns:dc="http://purl.org/dc/elements/1.1/"
   xmlns:cc="http://creativecommons.org/ns#"
   xmlns:rdf="http://www.w3.org/1999/02/22-rdf-syntax-ns#"
   xmlns:svg="http://www.w3.org/2000/svg"
   xmlns="http://www.w3.org/2000/svg"
   xmlns:sodipodi="http://sodipodi.sourceforge.net/DTD/sodipodi-0.dtd"
   xmlns:inkscape="http://www.inkscape.org/namespaces/inkscape"
   width="24px"
   height="48px"
   viewBox="0 0 24 48"
   version="1.1"
   id="svg3000"
   inkscape:version="0.92.2 (5c3e80d, 2017-08-06)"
   sodipodi:docname="asciidoc-sprite-new-tmp.svg">
  <metadata
     id="metadata3013">
    <rdf:RDF>
      <cc:Work
         rdf:about="">
        <dc:format>image/svg+xml</dc:format>
        <dc:type
           rdf:resource="http://purl.org/dc/dcmitype/StillImage" />
        <dc:title> Markdown</dc:title>
      </cc:Work>
    </rdf:RDF>
  </metadata>
  <sodipodi:namedview
     pagecolor="#ffffff"
     bordercolor="#666666"
     borderopacity="1"
     objecttolerance="10"
     gridtolerance="10"
     guidetolerance="10"
     inkscape:pageopacity="0"
     inkscape:pageshadow="2"
     inkscape:window-width="1600"
     inkscape:window-height="847"
     id="namedview3011"
     showgrid="false"
     inkscape:zoom="16.031237"
     inkscape:cx="27.333574"
     inkscape:cy="24.598242"
     inkscape:window-x="-8"
     inkscape:window-y="-8"
     inkscape:window-maximized="1"
     inkscape:current-layer="Page 1" />
  <title
     id="title3002"> Markdown</title>
  <description
     id="description3004">Created with Sketch (http://www.bohemiancoding.com/sketch)</description>
  <defs
     id="defs3006" />
  <g
     id="Page 1"
     style="fill:none;fill-rule:evenodd;stroke:none;stroke-width:1">
    <path
       style="fill:#bbbbbb;stroke:none;stroke-width:0.27000001;stroke-miterlimit:4;stroke-dasharray:none;stroke-opacity:1"
       d="M 16.349054,3 C 18.69533,3 20.6,4.9048115 20.6,7.2510339 V 15.948971 C 20.6,18.295198 18.695292,20.2 16.349054,20.2 H 7.651064 C 5.3048668,20.2 3.4,18.295198 3.4,15.948971 V 7.2510339 C 3.4,4.9048115 5.3048269,3 7.651064,3 Z"
       id="path829"
       inkscape:connector-curvature="0" />
    <path
       id="Markdown"
       style="fill:#5d5f60;fill-opacity:1;stroke:#5d5f60;stroke-width:0.74299997;stroke-miterlimit:4;stroke-dasharray:none;stroke-opacity:1"
       d="m 10.359639,11.185012 1.906357,-4.6738948 4.346975,10.5990038 c 0.0061,0.01295 0.01227,0.02647 0.01843,0.0387 0.02718,0.05048 0.06517,0.09524 0.110564,0.130499 0.04556,0.03514 0.09839,0.06052 0.154142,0.07413 0.05582,0.01384 0.114407,0.01546 0.171008,0.0054 0.04241,-0.0069 0.08349,-0.0222 0.121449,-0.04244 0.03792,-0.02074 0.07254,-0.04673 0.102356,-0.07807 0.02972,-0.03133 0.05461,-0.067 0.0733,-0.105803 0.03747,-0.078 0.04947,-0.166969 0.03403,-0.251982 -0.0064,-0.03767 -0.01217,-0.04673 -0.02412,-0.0825 L 12.645595,5.2683078 c -0.016,-0.033966 -0.01878,-0.042993 -0.03991,-0.074464 -0.04763,-0.070264 -0.116731,-0.124819 -0.196194,-0.154594 -0.0353,-0.013285 -0.04491,-0.013789 -0.08178,-0.021235 -0.01419,-0.00152 -0.02797,-0.00289 -0.04205,-0.00435 -0.03761,5.25e-5 -0.04706,-0.0014 -0.0844,0.00437 -0.04186,0.00634 -0.08252,0.019633 -0.120402,0.038736 -0.05055,0.025479 -0.09556,0.060935 -0.131726,0.1042824 -0.01817,0.021752 -0.03391,0.045116 -0.04715,0.070055 -0.0062,0.012239 -0.01239,0.025478 -0.01801,0.038214 L 9.4710376,11.185002 H 6.8283123 c -0.024425,7.98e-4 -0.030618,4.04e-4 -0.054851,0.0046 -0.045428,0.0062 -0.089745,0.0196 -0.1306761,0.04036 -0.049149,0.02497 -0.093103,0.05955 -0.1286515,0.101505 -0.029561,0.03501 -0.053258,0.07499 -0.069704,0.117783 -0.0198,0.05152 -0.02913,0.106627 -0.027273,0.1616 0.00186,0.05493 0.014849,0.109503 0.037994,0.159421 0.015442,0.03337 0.035342,0.06446 0.059003,0.09237 0.02371,0.02815 0.051101,0.05306 0.081365,0.07362 0.045376,0.03133 0.09695,0.05307 0.1508632,0.064 0.017985,0.0043 0.036197,0.0061 0.054456,0.0064 0.00914,5.86e-4 0.018358,5.86e-4 0.027488,8.53e-4 h 4.7478361 c 0.0078,-3.42e-4 0.01839,-3.42e-4 0.02752,-8.53e-4 0.01837,-8.53e-4 0.0364,-0.0043 0.05449,-0.0064 0.05408,-0.01187 0.105573,-0.03298 0.150917,-0.064 0.03776,-0.02594 0.07122,-0.05833 0.09842,-0.09517 0.0217,-0.02967 0.03953,-0.06196 0.05273,-0.09616 0.01658,-0.04304 0.02572,-0.08823 0.02718,-0.134058 0.0014,-0.05492 -0.0063,-0.110323 -0.02718,-0.161599 -0.01339,-0.03395 -0.03093,-0.06662 -0.05264,-0.09614 -0.03256,-0.04407 -0.07425,-0.0819 -0.121627,-0.109941 -0.03946,-0.02335 -0.08273,-0.03984 -0.127802,-0.04934 -0.02389,-0.0056 -0.03013,-0.0056 -0.05451,-0.0068 l -0.02752,-8.54e-4 z m 0.347539,2.774716 c 0.0077,-3.06e-4 0.0184,-3.06e-4 0.02753,-8.52e-4 0.01836,-8.55e-4 0.03641,-0.0042 0.0545,-0.0062 0.05401,-0.01216 0.105509,-0.03303 0.150915,-0.06398 0.03778,-0.02592 0.07116,-0.05833 0.09837,-0.0951 0.0217,-0.02965 0.03951,-0.06186 0.05275,-0.09621 0.01657,-0.043 0.02571,-0.08825 0.02718,-0.134132 0.0014,-0.05496 -0.0062,-0.110293 -0.02718,-0.1616 -0.01312,-0.03396 -0.03095,-0.0667 -0.05275,-0.09618 -0.03264,-0.04449 -0.07424,-0.08193 -0.121546,-0.109932 -0.03943,-0.02332 -0.08273,-0.03985 -0.127675,-0.0493 -0.02393,-0.0052 -0.0301,-0.0052 -0.05452,-0.0062 -0.0077,-2.93e-4 -0.01836,-5.92e-4 -0.02753,-8.51e-4 H 5.959358 c -0.00914,2.98e-4 -0.018313,2.98e-4 -0.02749,8.51e-4 -0.01826,8.52e-4 -0.036463,0.0042 -0.054451,0.0062 -0.053908,0.01217 -0.1055024,0.03295 -0.1508643,0.06398 -0.03784,0.02593 -0.071191,0.05829 -0.098382,0.09517 -0.021753,0.02966 -0.039531,0.06189 -0.052701,0.09616 -0.013164,0.03395 -0.021711,0.07019 -0.025418,0.106777 -0.00556,0.05478 9.92e-5,0.11048 0.016445,0.163091 0.016297,0.05252 0.043205,0.101685 0.078736,0.143716 0.035553,0.04194 0.079536,0.07681 0.1285992,0.101542 0.040924,0.02072 0.085307,0.03443 0.1307232,0.04029 0.024255,0.0032 0.030459,0.0029 0.05485,0.0042 h 2.3025308 l -1.1677297,2.83762 c -0.00276,0.0062 -0.00573,0.01431 -0.00819,0.0217 -0.00505,0.01477 -0.00966,0.02966 -0.012833,0.04504 -0.013651,0.0612 -0.013059,0.125341 0.00186,0.186329 0.011011,0.04569 0.030036,0.08939 0.055839,0.128689 0.030093,0.04624 0.069417,0.08565 0.1149818,0.116098 0.032536,0.02169 0.068175,0.0387 0.1055457,0.05046 0.03736,0.01227 0.076419,0.01811 0.1155622,0.01908 0.047026,8.5e-4 0.094142,-0.0063 0.1386732,-0.02122 0.052007,-0.01758 0.1004154,-0.04504 0.1415348,-0.08179 0.035239,-0.03135 0.065062,-0.06821 0.087778,-0.109467 0.010124,-0.01856 0.011915,-0.02332 0.020321,-0.04246 l 1.2965392,-3.151256 z"
       inkscape:connector-curvature="0"
       mask="none" />
    <path
       style="fill:#78b2f2;fill-opacity:1;stroke:none;stroke-width:0;stroke-miterlimit:4;stroke-dasharray:none;stroke-opacity:1"
       d="M 16.349058,26.8 C 18.695337,26.8 20.6,28.704802 20.6,31.051027 v 8.697947 C 20.6,42.095174 18.695295,44 16.349058,44 H 7.6510638 C 5.304867,44 3.4,42.095174 3.4,39.748974 V 31.051027 C 3.4,28.704802 5.3048264,26.8 7.6510638,26.8 Z"
       id="path835"
       inkscape:connector-curvature="0" />
    <path
       id="Markdown On"
       style="fill:#5d5f60;fill-opacity:1;stroke:#5d5f60;stroke-width:0.74299997;stroke-miterlimit:4;stroke-dasharray:none;stroke-opacity:1"
       d="m 10.422085,35.234323 1.906388,-4.673943 4.347025,10.599138 c 0.0062,0.01321 0.01199,0.02646 0.01835,0.03864 0.0272,0.05049 0.0651,0.09523 0.110597,0.130526 0.04555,0.03513 0.09832,0.06061 0.154137,0.07415 0.05574,0.01389 0.114453,0.0154 0.171014,0.0048 0.0424,-0.0065 0.08365,-0.0224 0.121483,-0.04244 0.03792,-0.02073 0.07258,-0.04669 0.10233,-0.07804 0.02978,-0.03133 0.05453,-0.06702 0.0732,-0.105788 0.03746,-0.07797 0.04947,-0.166966 0.0341,-0.251981 -0.0067,-0.03773 -0.01212,-0.04669 -0.02409,-0.0825 L 12.708115,29.316894 c -0.01597,-0.03392 -0.01873,-0.04291 -0.03992,-0.07439 -0.04749,-0.07021 -0.116786,-0.124788 -0.196201,-0.154602 -0.03527,-0.01357 -0.04497,-0.01399 -0.08171,-0.02121 -0.01411,-0.0014 -0.02805,-0.0027 -0.04206,-0.0042 -0.03755,4.9e-5 -0.04714,-0.0014 -0.08437,0.0045 -0.04181,0.0061 -0.08256,0.01953 -0.120414,0.03864 -0.05054,0.02546 -0.09562,0.06093 -0.131755,0.104179 -0.01807,0.02168 -0.03392,0.04498 -0.04721,0.07001 -0.0063,0.0129 -0.01199,0.02548 -0.01802,0.03818 l -2.4130056,5.91617 H 6.8907093 c -0.024412,7.9e-4 -0.030621,3.96e-4 -0.054847,0.0034 -0.045433,0.0061 -0.089751,0.01952 -0.1306783,0.04031 -0.049144,0.025 -0.09311,0.05949 -0.128653,0.101493 -0.029562,0.03512 -0.053272,0.07506 -0.069712,0.117825 -0.019794,0.05135 -0.029137,0.106685 -0.02728,0.161605 0.00187,0.05494 0.014864,0.109517 0.037996,0.159417 0.015442,0.03346 0.035351,0.0645 0.058976,0.09246 0.023733,0.02806 0.05111,0.05305 0.081366,0.07363 0.045375,0.03135 0.096959,0.05305 0.1508639,0.06395 0.017994,0.0034 0.036198,0.0057 0.054451,0.0062 0.00925,5.9e-4 0.018363,5.9e-4 0.027496,8.72e-4 h 4.7479001 c 0.01199,-3.43e-4 0.01828,-3.43e-4 0.0275,-8.72e-4 0.01825,-0.0014 0.03648,-0.0034 0.05446,-0.0062 0.05384,-0.01235 0.105552,-0.03305 0.150921,-0.06395 0.03778,-0.02591 0.07109,-0.05837 0.0983,-0.09515 0.02179,-0.02969 0.03949,-0.06186 0.0527,-0.0962 0.01651,-0.0429 0.02575,-0.0883 0.0272,-0.134059 0.0021,-0.05494 -0.0074,-0.110232 -0.0272,-0.161602 -0.01322,-0.03394 -0.0309,-0.06679 -0.0527,-0.09623 -0.03264,-0.04409 -0.07425,-0.08193 -0.121496,-0.109938 -0.03939,-0.02329 -0.08282,-0.03986 -0.1278,-0.04927 -0.02402,-0.0047 -0.03018,-0.0047 -0.05443,-0.0063 l -0.0275,-8.74e-4 z m 0.347573,2.774764 c 0.0094,-3.1e-4 0.01831,-3.1e-4 0.02749,-8.72e-4 0.01824,-0.0014 0.03648,-0.0034 0.05442,-0.0063 0.05397,-0.01233 0.105504,-0.03304 0.150921,-0.06393 0.03778,-0.02591 0.07109,-0.05833 0.09835,-0.09511 0.02179,-0.02968 0.03948,-0.06186 0.0527,-0.09629 0.01651,-0.0429 0.02573,-0.0883 0.0272,-0.134125 0.0021,-0.05499 -0.0073,-0.110217 -0.0272,-0.161601 -0.01321,-0.03394 -0.0309,-0.06682 -0.0527,-0.09626 -0.03276,-0.04453 -0.07425,-0.0819 -0.12151,-0.109934 -0.03938,-0.02329 -0.08285,-0.03986 -0.12766,-0.04927 -0.024,-0.0047 -0.03021,-0.0047 -0.05442,-0.0063 -0.0091,-2.97e-4 -0.01824,-5.94e-4 -0.0275,-8.74e-4 H 6.0217503 c -0.00926,2.91e-4 -0.018308,2.91e-4 -0.027494,8.74e-4 -0.018262,0.0014 -0.036456,0.0034 -0.054449,0.0063 -0.053911,0.01234 -0.1054989,0.03303 -0.1508666,0.06393 -0.037843,0.02591 -0.071195,0.05831 -0.098391,0.09515 -0.021759,0.02969 -0.039544,0.06186 -0.052696,0.09624 -0.013163,0.03392 -0.021705,0.07016 -0.025417,0.106804 -0.00545,0.05475 9.94e-5,0.110401 0.016447,0.163021 0.016299,0.05257 0.043196,0.101638 0.078741,0.14372 0.035552,0.04194 0.079534,0.0767 0.1286028,0.101553 0.040919,0.02073 0.085308,0.03439 0.1307268,0.04031 0.024253,0.0029 0.030465,0.0027 0.054847,0.0034 H 8.32434 l -1.1677443,2.83748 c -0.00283,0.0063 -0.00571,0.01432 -0.00823,0.02169 -0.00545,0.01476 -0.00964,0.02971 -0.012834,0.04501 -0.01363,0.06121 -0.013062,0.125335 0.00182,0.186387 0.011058,0.04575 0.030044,0.08932 0.055833,0.128706 0.030095,0.04624 0.069412,0.08566 0.1149755,0.11611 0.032538,0.02169 0.068177,0.03864 0.1055496,0.05049 0.037361,0.01266 0.076424,0.0181 0.1155842,0.01911 0.047019,8.73e-4 0.094144,-0.0061 0.138675,-0.02121 0.052016,-0.01751 0.1004081,-0.04501 0.1415365,-0.0818 0.035239,-0.03136 0.065067,-0.06818 0.087774,-0.109471 0.010129,-0.01863 0.011806,-0.0233 0.020329,-0.04243 l 1.296565,-3.150821 z"
       inkscape:connector-curvature="0" />
  </g>
</svg>
