<?xml version="1.0" encoding="UTF-8" standalone="no"?>
<svg
   xmlns:dc="http://purl.org/dc/elements/1.1/"
   xmlns:cc="http://creativecommons.org/ns#"
   xmlns:rdf="http://www.w3.org/1999/02/22-rdf-syntax-ns#"
   xmlns:svg="http://www.w3.org/2000/svg"
   xmlns="http://www.w3.org/2000/svg"
   xmlns:sodipodi="http://sodipodi.sourceforge.net/DTD/sodipodi-0.dtd"
   xmlns:inkscape="http://www.inkscape.org/namespaces/inkscape"
   width="24px"
   height="48px"
   viewBox="0 0 24 48"
   version="1.1"
   id="svg3000"
   inkscape:version="0.48.4 r9939"
   sodipodi:docname="asciidoc-sprite.svg">
  <metadata
     id="metadata3013">
    <rdf:RDF>
      <cc:Work
         rdf:about="">
        <dc:format>image/svg+xml</dc:format>
        <dc:type
           rdf:resource="http://purl.org/dc/dcmitype/StillImage" />
      </cc:Work>
    </rdf:RDF>
  </metadata>
  <sodipodi:namedview
     pagecolor="#ffffff"
     bordercolor="#666666"
     borderopacity="1"
     objecttolerance="10"
     gridtolerance="10"
     guidetolerance="10"
     inkscape:pageopacity="0"
     inkscape:pageshadow="2"
     inkscape:window-width="1108"
     inkscape:window-height="703"
     id="namedview3011"
     showgrid="false"
     inkscape:zoom="10.713658"
     inkscape:cx="-3.4942413"
     inkscape:cy="24"
     inkscape:window-x="37"
     inkscape:window-y="28"
     inkscape:window-maximized="0"
     inkscape:current-layer="Page 1" />
  <title
     id="title3002"> Markdown</title>
  <description
     id="description3004">Created with Sketch (http://www.bohemiancoding.com/sketch)</description>
  <defs
     id="defs3006" />
  <g
     id="Page 1"
     stroke="none"
     stroke-width="1"
     fill="none"
     fill-rule="evenodd">
    <path
       style="fill:#bbbbbb"
       d="M 4.375 6 C 3.619476 6 3 6.6308437 3 7.40625 L 3 16.59375 C 3 17.369156 3.619476 18 4.375 18 L 19.625 18 C 20.380524 18 21 17.369156 21 16.59375 L 21 7.40625 C 21 6.6308437 20.380524 6 19.625 6 L 4.375 6 z M 7.59375 8.375 L 8.9375 8.375 L 11.71875 14.8125 L 10.625 14.8125 L 9.875 13 L 6.625 13 L 5.875 14.8125 L 4.84375 14.8125 L 7.59375 8.375 z M 12.84375 8.375 L 14.75 8.375 C 15.489617 8.3750065 16.064027 8.4091078 16.5 8.5 C 16.935964 8.590905 17.323039 8.7162939 17.625 8.875 C 18.140692 9.149145 18.524109 9.5128183 18.8125 9.96875 C 19.100877 10.424691 19.249994 10.967562 19.25 11.59375 C 19.249994 12.179545 19.112751 12.711366 18.8125 13.1875 C 18.512234 13.663638 18.092479 14.018654 17.59375 14.28125 C 17.247684 14.463048 16.863285 14.606701 16.4375 14.6875 C 16.011705 14.7683 15.476761 14.8125 14.78125 14.8125 L 12.84375 14.8125 L 12.84375 8.375 z M 13.875 9.09375 L 13.875 14.0625 L 14.8125 14.0625 C 15.297661 14.0625 15.732418 14.0606 16.09375 14 C 16.455074 13.9394 16.76054 13.820735 17.0625 13.65625 C 17.439089 13.451368 17.717947 13.17849 17.90625 12.84375 C 18.094542 12.509014 18.218744 12.095861 18.21875 11.59375 C 18.218744 11.08876 18.113201 10.658786 17.90625 10.3125 C 17.699286 9.966219 17.379268 9.699117 16.96875 9.5 C 16.670183 9.3557217 16.335878 9.2437764 16 9.1875 C 15.664113 9.1312345 15.280697 9.0937555 14.8125 9.09375 L 13.875 9.09375 z M 8.25 9.125 L 6.90625 12.28125 L 9.5625 12.28125 L 8.25 9.125 z "
       id="Markdown" />
    <path
       style="fill:#7339bc;fill-opacity:1"
       d="M 4.375 30 C 3.619476 30 3 30.630844 3 31.40625 L 3 40.59375 C 3 41.369156 3.619476 42 4.375 42 L 19.625 42 C 20.380524 42 21 41.369156 21 40.59375 L 21 31.40625 C 21 30.630844 20.380524 30 19.625 30 L 4.375 30 z M 7.59375 32.40625 L 8.9375 32.40625 L 11.6875 38.84375 L 10.625 38.84375 L 9.875 37.0625 L 6.59375 37.0625 L 5.84375 38.84375 L 4.84375 38.84375 L 7.59375 32.40625 z M 12.84375 32.40625 L 14.75 32.40625 C 15.489616 32.406257 16.064028 32.440361 16.5 32.53125 C 16.935965 32.62216 17.291789 32.747544 17.59375 32.90625 C 18.109442 33.180395 18.524109 33.544068 18.8125 34 C 19.100877 34.455941 19.249993 34.998811 19.25 35.625 C 19.249993 36.210794 19.081501 36.742614 18.78125 37.21875 C 18.480985 37.694887 18.092478 38.081155 17.59375 38.34375 C 17.247683 38.525548 16.863286 38.637952 16.4375 38.71875 C 16.011706 38.79955 15.445512 38.84375 14.75 38.84375 L 12.84375 38.84375 L 12.84375 32.40625 z M 13.84375 33.125 L 13.84375 38.125 L 14.8125 38.125 C 15.29766 38.125001 15.701167 38.09185 16.0625 38.03125 C 16.423823 37.97065 16.76054 37.851985 17.0625 37.6875 C 17.43909 37.482619 17.717947 37.20974 17.90625 36.875 C 18.094542 36.540264 18.187493 36.127111 18.1875 35.625 C 18.187493 35.12001 18.081951 34.690035 17.875 34.34375 C 17.668037 33.997473 17.379267 33.730367 16.96875 33.53125 C 16.670183 33.386972 16.335878 33.275026 16 33.21875 C 15.664113 33.16248 15.280696 33.125 14.8125 33.125 L 13.84375 33.125 z M 8.25 33.15625 L 6.90625 36.3125 L 9.5625 36.3125 L 8.25 33.15625 z "
       id="Markdown On" />
  </g>
  <text
     xml:space="preserve"
     style="font-size:6px;font-style:normal;font-weight:normal;line-height:125%;letter-spacing:0px;word-spacing:0px;fill:#000000;fill-opacity:1;stroke:none;font-family:Sans"
     x="30.055096"
     y="20.091698"
     id="text3015"
     sodipodi:linespacing="125%"><tspan
       sodipodi:role="line"
       id="tspan3017"
       x="30.055096"
       y="20.091698" /></text>
  <text
     xml:space="preserve"
     style="font-size:4px;font-style:normal;font-weight:normal;line-height:125%;letter-spacing:0px;word-spacing:0px;fill:#000000;fill-opacity:1;stroke:none;font-family:Sans"
     x="32.481903"
     y="17.384872"
     id="text3019"
     sodipodi:linespacing="125%"><tspan
       sodipodi:role="line"
       id="tspan3021"
       x="32.481903"
       y="17.384872" /></text>
</svg>
